<?xml version="1.0" ?><!DOCTYPE svg  PUBLIC '-//W3C//DTD SVG 1.1//EN'  'http://www.w3.org/Graphics/SVG/1.1/DTD/svg11.dtd'><svg enable-background="new 0 0 512 512" height="512px" id="Layer_1" version="1.1" viewBox="0 0 512 512" width="512px" xml:space="preserve" xmlns="http://www.w3.org/2000/svg" xmlns:xlink="http://www.w3.org/1999/xlink"><g><path d="M427.757,309.452c-0.105,0-0.212,0-0.326-0.009l-79.952-3.185l-309.216-1.752   c-4.335-0.024-7.938-3.356-8.306-7.679c-0.364-4.322,2.628-8.203,6.897-8.957l48.944-8.628c0.599-0.114,1.2-0.173,1.798-0.123   l176.363,7.032L78.479,263.967c-4.523-0.541-7.785-4.593-7.351-9.129c0.298-3.094,2.247-5.64,4.896-6.836l-35.501-11.034   c-4.421-1.376-6.89-6.075-5.519-10.496c1.376-4.42,6.083-6.869,10.496-5.518L84.18,232.98l193.711,28.8l191.864,14.065   c4.616,0.335,8.078,4.355,7.744,8.973c-0.344,4.609-4.356,8.097-8.973,7.744l-14.214-1.04c0.509,0.991,0.837,2.097,0.918,3.259   c0.278,3.921-2.203,7.507-5.975,8.629l-19.108,5.689C429.379,309.337,428.576,309.452,427.757,309.452z" fill="#231F20"/><path d="M326.717,381.602c-2.864,0-5.664-1.483-7.22-4.118c-2.308-3.896-1.096-8.915,2.718-11.34l122.187-77.576   c-74.09-33.812-123.029-55.907-130.691-59c-1.581-0.361-3.08-1.179-4.217-2.317c-0.95-0.925-1.629-2.047-2.046-3.25   c-1.509-2.342-7.991-11.986-13.82-20.5c-2.146-3.136-1.916-7.327,0.572-10.209c2.481-2.874,6.591-3.709,10.013-2.063   l170.422,82.856c2.734,1.327,4.536,4.037,4.707,7.065c0.091,1.621-0.286,3.201-1.055,4.568c2.25,1.474,3.684,3.962,3.782,6.705   c0.113,3.167-1.572,6.132-4.356,7.654L330.744,380.57C329.469,381.273,328.086,381.602,326.717,381.602z" fill="#231F20"/><path d="M301.911,384.311c-3.012,0-5.926-1.629-7.432-4.486c-2.146-4.103-0.565-9.169,3.535-11.322l159.64-83.741   L296.361,142.362c-3.47-3.069-3.798-8.367-0.736-11.838c3.063-3.463,8.359-3.807,11.83-0.736l170.421,150.454   c2.07,1.825,3.111,4.551,2.774,7.294c-0.326,2.734-1.988,5.133-4.429,6.418L305.8,383.354   C304.565,383.999,303.221,384.311,301.911,384.311z" fill="#231F20"/></g></svg>